<?xml version="1.0" encoding="utf-8"?>
<!-- Generator: Adobe Illustrator 17.1.0, SVG Export Plug-In . SVG Version: 6.00 Build 0)  -->
<!DOCTYPE svg PUBLIC "-//W3C//DTD SVG 1.1//EN" "http://www.w3.org/Graphics/SVG/1.1/DTD/svg11.dtd">
<svg version="1.1" id="Layer_1" xmlns="http://www.w3.org/2000/svg" xmlns:xlink="http://www.w3.org/1999/xlink" x="0px" y="0px"
	 viewBox="0 0 960 560" enable-background="new 0 0 960 560" xml:space="preserve">
<path id="music_1_" fill="#F2F2F2" d="M653.6,53c-4.1-3.5-9.3-5.3-14.6-5.3c-1.3,0-2.6,0.1-3.9,0.4L442.4,82
	c-10.8,1.9-18.7,11.3-18.7,22.3V127v11.3V299c-11.5-8.3-26.4-13.3-43-13.3c-9.6,0-19.3,1.6-28.7,4.7c-21.5,7.2-38.8,21.6-47.3,39.5
	c-6.6,13.9-7.5,28.9-2.4,42.5c8.6,23.1,33.1,38,62.4,38c9.6,0,19.3-1.6,28.7-4.7c21.5-7.2,38.8-21.5,47.3-39.5
	c3.7-7.7,5.4-15.8,5.5-23.8h0.2V161c1.3,0,2.6-0.1,3.9-0.3l188.8-33.3V265c-11.5-8.3-26.4-13.3-43-13.3c-9.6,0-19.3,1.6-28.7,4.7
	c-21.5,7.2-38.7,21.6-47.3,39.5c-6.6,13.9-7.5,28.9-2.4,42.5c8.6,23.1,33.1,38,62.4,38c9.6,0,19.3-1.6,28.7-4.7
	c21.5-7.2,38.8-21.5,47.3-39.5c3.7-7.7,5.4-15.8,5.5-23.8h0.2V104.4V93V70.3C661.7,63.7,658.8,57.3,653.6,53z M386.1,384.2
	c-27.2,9.1-55.2,0.2-62.7-19.7c-7.5-20,8.5-43.5,35.7-52.5c27.2-9.1,55.3-0.2,62.7,19.7C429.3,351.7,413.3,375.2,386.1,384.2z
	 M601.1,350.2c-27.2,9.1-55.2,0.2-62.7-19.7c-7.5-20,8.5-43.5,35.7-52.5c27.2-9.1,55.2-0.2,62.7,19.7
	C644.3,317.7,628.3,341.2,601.1,350.2z M638.6,104.4l-192.8,34V127v-22.7l192.8-34V93V104.4z"/>
</svg>
