<?xml version="1.0" encoding="utf-8"?>
<!-- Generator: Adobe Illustrator 17.1.0, SVG Export Plug-In . SVG Version: 6.00 Build 0)  -->
<!DOCTYPE svg PUBLIC "-//W3C//DTD SVG 1.1//EN" "http://www.w3.org/Graphics/SVG/1.1/DTD/svg11.dtd">
<svg version="1.1" id="Layer_1" xmlns="http://www.w3.org/2000/svg" xmlns:xlink="http://www.w3.org/1999/xlink" x="0px" y="0px"
	 viewBox="0 0 960 560" enable-background="new 0 0 960 560" xml:space="preserve">
<g id="vynil_1_">
	<path fill-rule="evenodd" clip-rule="evenodd" fill="#F2F2F2" d="M547.1,50.6c-93.2-37.3-199.1,8-236.4,101.2
		c-37.3,93.2,8,199.1,101.2,236.4c93.2,37.3,199.1-8,236.4-101.2C685.6,193.8,640.3,88,547.1,50.6z M420.3,367.2
		c-81.5-32.6-121.2-125.4-88.6-206.9c32.6-81.5,125.4-121.2,206.9-88.6c81.5,32.6,121.2,125.4,88.6,206.9
		C594.6,360.1,501.8,399.8,420.3,367.2z"/>
	<path fill-rule="evenodd" clip-rule="evenodd" fill="#F2F2F2" d="M487.9,198.4c-11.7-4.7-24.9,1-29.6,12.7
		c-4.7,11.7,1,24.9,12.6,29.5c11.7,4.7,24.9-1,29.6-12.6C505.2,216.3,499.6,203,487.9,198.4z M475.2,230c-5.8-2.3-8.6-9-6.3-14.8
		c2.3-5.8,9-8.6,14.8-6.3c5.8,2.3,8.6,9,6.3,14.8C487.7,229.5,481,232.3,475.2,230z"/>
	<path fill-rule="evenodd" clip-rule="evenodd" fill="#F2F2F2" d="M504.8,156.2c-35-14-74.7,3-88.7,37.9c-14,35,3,74.7,38,88.7
		c35,14,74.7-3,88.7-37.9C556.8,209.8,539.8,170.1,504.8,156.2z M462.6,261.7c-23.3-9.3-34.6-35.8-25.3-59.1
		c9.3-23.3,35.8-34.6,59.1-25.3c23.3,9.3,34.6,35.9,25.3,59.1C512.3,259.6,485.8,271,462.6,261.7z"/>
	<path fill-rule="evenodd" clip-rule="evenodd" fill="#F2F2F2" d="M563.9,253.3c1.2-2.9-0.3-6.2-3.2-7.4c-2.9-1.2-6.2,0.2-7.4,3.2
		l0,0c-8.2,20.4-23.8,35.6-42.6,43.6c-2.9,1.2-4.2,4.6-3,7.4c1.2,2.9,4.6,4.2,7.5,3c0.1,0,0.2-0.1,0.2-0.2
		C536.8,293.7,554.6,276.4,563.9,253.3L563.9,253.3z"/>
	<path fill-rule="evenodd" clip-rule="evenodd" fill="#F2F2F2" d="M602.9,262.8c-2.9-1.2-6.2,0.3-7.4,3.2
		c-12.8,32.1-37.5,55.9-66.9,68.5c-2.9,1.2-4.2,4.6-3,7.5c1.2,2.9,4.6,4.2,7.5,3c0.1-0.1,0.2-0.2,0.4-0.3
		c31.9-13.8,58.7-39.7,72.6-74.4C607.2,267.2,605.8,263.9,602.9,262.8z"/>
	<path fill-rule="evenodd" clip-rule="evenodd" fill="#F2F2F2" d="M581.8,254.3c-2.9-1.2-6.2,0.2-7.4,3.2
		c-10.5,26.2-30.6,45.7-54.7,56h0c-2.9,1.2-4.2,4.6-3,7.5c1.2,2.9,4.6,4.2,7.5,3c0.1-0.1,0.2-0.2,0.3-0.2c26.6-11.5,48.9-33,60.5-62
		C586.1,258.8,584.7,255.5,581.8,254.3z"/>
	<path fill-rule="evenodd" clip-rule="evenodd" fill="#F2F2F2" d="M451.1,138.8c-1.2-2.9-4.6-4.2-7.5-3c-0.1,0-0.2,0.1-0.2,0.2
		c-21.3,9.2-39.1,26.5-48.4,49.6h0c-1.2,2.9,0.3,6.2,3.2,7.4c2.9,1.2,6.2-0.3,7.4-3.2h0c8.2-20.4,23.8-35.6,42.5-43.6
		C451,145.1,452.4,141.7,451.1,138.8z"/>
	<path fill-rule="evenodd" clip-rule="evenodd" fill="#F2F2F2" d="M433.2,97.1c-1.2-2.9-4.6-4.2-7.5-3c-0.1,0.1-0.2,0.2-0.4,0.2
		c-31.9,13.8-58.7,39.7-72.6,74.4c-1.2,2.9,0.2,6.2,3.2,7.4c2.9,1.2,6.2-0.2,7.4-3.2c12.8-32.1,37.4-55.9,66.9-68.5
		C433.1,103.3,434.5,99.9,433.2,97.1z"/>
	<path fill-rule="evenodd" clip-rule="evenodd" fill="#F2F2F2" d="M439.2,125.4c2.9-1.2,4.2-4.6,3-7.5c-1.2-2.9-4.6-4.2-7.5-3
		c-0.1,0-0.2,0.2-0.3,0.2c-26.6,11.5-48.9,33.1-60.5,62c-1.2,2.9,0.3,6.2,3.2,7.4c2.9,1.2,6.2-0.2,7.4-3.2
		C395,155.2,415.1,135.7,439.2,125.4L439.2,125.4z"/>
</g>
</svg>
