<?xml version="1.0" encoding="utf-8"?>
<!-- Generator: Adobe Illustrator 17.1.0, SVG Export Plug-In . SVG Version: 6.00 Build 0)  -->
<!DOCTYPE svg PUBLIC "-//W3C//DTD SVG 1.1//EN" "http://www.w3.org/Graphics/SVG/1.1/DTD/svg11.dtd">
<svg version="1.1" id="Layer_1" xmlns="http://www.w3.org/2000/svg" xmlns:xlink="http://www.w3.org/1999/xlink" x="0px" y="0px"
	 viewBox="0 0 960 560" enable-background="new 0 0 960 560" xml:space="preserve">
<g id="heart_1_">
	<path fill-rule="evenodd" clip-rule="evenodd" fill="#F2F2F2" d="M649.8,77.7C602.8,31.1,527.7,30.2,479,74
		c-48.7-43.8-123.8-42.8-170.8,3.7c-48.4,48-48.4,125.7,0,173.7c13.8,13.7,143.1,141.7,143.1,141.7c15.3,15.2,40.1,15.2,55.4,0
		c0,0,141.5-140.1,143.1-141.7C698.3,203.4,698.3,125.7,649.8,77.7z M631.4,233.1L488.2,374.8c-5.1,5-13.4,5-18.4,0L326.7,233.1
		c-38.2-37.8-38.2-99.3,0-137.1c36.8-36.5,96-37.7,134.8-2.9l17.6,15.8l17.6-15.8c38.8-34.9,98-33.6,134.8,2.9
		C669.6,133.8,669.6,195.3,631.4,233.1z"/>
	<path fill-rule="evenodd" clip-rule="evenodd" fill="#F2F2F2" d="M391.6,106.7C391.6,106.7,391.6,106.7,391.6,106.7
		c-30.4,0-55,24.7-55,55l0,0c0,3.6,2.9,6.5,6.5,6.5c3.6,0,6.5-2.9,6.5-6.5v0c0-23.2,18.8-42.1,42.1-42.1h0c3.6,0,6.5-2.9,6.5-6.5
		C398.1,109.6,395.2,106.7,391.6,106.7z"/>
</g>
</svg>
